<svg width="27" height="21" viewBox="0 0 27 21" fill="none" xmlns="http://www.w3.org/2000/svg">
<path d="M24.9851 9.35615H4.77881L12.0226 2.1124C12.4515 1.6835 12.4515 0.920996 12.0226 0.49209C11.5937 0.0631836 10.8312 0.0631836 10.4022 0.49209L1.15693 9.68974C1.06162 9.78506 0.966309 9.92802 0.918652 10.071C0.82334 10.3569 0.82334 10.6905 0.918652 10.9288C0.966309 11.0718 1.06162 11.2147 1.15693 11.3101L10.4022 20.5077C10.6405 20.746 10.9265 20.8413 11.2124 20.8413C11.4983 20.8413 11.7843 20.746 12.0226 20.5077C12.4515 20.0788 12.4515 19.3163 12.0226 18.8874L4.77881 11.6437H25.0327C25.6522 11.6437 26.1765 11.1194 26.1765 10.4999C26.1765 9.88037 25.6522 9.35615 24.9851 9.35615Z" fill="#F6255A"/>
</svg>
