<svg width="27" height="21" viewBox="0 0 27 21" fill="none" xmlns="http://www.w3.org/2000/svg">
<path d="M2.01494 9.35615H22.2212L14.9774 2.1124C14.5485 1.6835 14.5485 0.920996 14.9774 0.49209C15.4063 0.0631836 16.1688 0.0631836 16.5978 0.49209L25.8431 9.68974C25.9384 9.78506 26.0337 9.92802 26.0813 10.071C26.1767 10.3569 26.1767 10.6905 26.0813 10.9288C26.0337 11.0718 25.9384 11.2147 25.8431 11.3101L16.5978 20.5077C16.3595 20.746 16.0735 20.8413 15.7876 20.8413C15.5017 20.8413 15.2157 20.746 14.9774 20.5077C14.5485 20.0788 14.5485 19.3163 14.9774 18.8874L22.2212 11.6437H1.96729C1.34775 11.6437 0.823534 11.1194 0.823534 10.4999C0.823534 9.88037 1.34775 9.35615 2.01494 9.35615Z" fill="#F6255A"/>
</svg>
